<svg version="1.1" xmlns="http://www.w3.org/2000/svg" viewBox="0 0 556.8666687011719 644" width="556.8666687011719" height="644">
  <!-- svg-source:excalidraw -->
  
  <defs>
    <style class="style-fonts">
      @font-face {
        font-family: "Virgil";
        src: url("https://excalidraw.com/Virgil.woff2");
      }
      @font-face {
        font-family: "Cascadia";
        src: url("https://excalidraw.com/Cascadia.woff2");
      }
    </style>
    
  </defs>
  <g transform="translate(202 24) rotate(0 -11 282)" stroke="none"><path fill="#1e1e1e" d="M 0,2.29 Q 0,2.29 -1.43,2.31 -2.87,2.33 -4.99,2.40 -7.11,2.48 -8.74,3.17 -10.37,3.86 -11.36,4.30 -12.35,4.75 -13.54,5.42 -14.74,6.09 -16.15,6.92 -17.56,7.75 -19.44,8.65 -21.32,9.55 -23.20,10.66 -25.08,11.78 -26.72,13.04 -28.36,14.31 -30.29,15.74 -32.21,17.16 -33.85,18.57 -35.50,19.98 -36.70,21.40 -37.90,22.82 -38.97,24.29 -40.04,25.76 -41.41,27.52 -42.78,29.28 -43.54,30.82 -44.31,32.35 -45.61,34.02 -46.92,35.68 -47.63,37.33 -48.35,38.97 -49.31,40.89 -50.27,42.81 -50.93,44.95 -51.59,47.08 -52.17,49.71 -52.76,52.33 -53.30,55.17 -53.84,58.01 -54.66,61.01 -55.49,64.00 -56.12,66.67 -56.75,69.33 -57.01,71.82 -57.26,74.32 -57.38,77.10 -57.49,79.88 -57.26,82.72 -57.02,85.56 -56.65,87.60 -56.27,89.64 -55.76,91.34 -55.26,93.03 -54.71,94.25 -54.16,95.46 -53.18,96.66 -52.20,97.86 -50.69,99.59 -49.18,101.32 -47.44,102.89 -45.70,104.47 -43.31,105.96 -40.92,107.46 -38.18,108.98 -35.44,110.50 -33.12,111.73 -30.80,112.96 -28.86,114.40 -26.92,115.85 -25.23,117.34 -23.54,118.83 -21.77,119.97 -20.00,121.10 -18.00,122.82 -15.99,124.53 -13.71,126.70 -11.42,128.86 -8.47,131.49 -5.51,134.11 -2.27,136.64 0.97,139.17 4.09,141.71 7.22,144.24 9.72,146.48 12.22,148.73 14.43,150.84 16.65,152.94 18.49,155.03 20.32,157.11 22.51,159.39 24.69,161.68 26.77,163.80 28.85,165.93 31.17,168.27 33.49,170.61 35.09,172.51 36.69,174.41 37.75,176.13 38.81,177.85 39.82,179.37 40.83,180.89 41.61,182.82 42.39,184.76 43.22,186.65 44.05,188.54 44.99,190.82 45.92,193.11 46.61,195.28 47.31,197.44 47.69,199.30 48.06,201.15 48.17,203.41 48.27,205.68 48.32,207.78 48.36,209.89 48.39,211.93 48.42,213.97 48.43,215.99 48.45,218.02 48.25,219.61 48.04,221.20 47.69,222.75 47.33,224.30 47.24,225.67 47.15,227.03 46.81,228.21 46.47,229.40 46.06,230.44 45.66,231.49 44.15,233.28 42.64,235.07 41.22,236.60 39.81,238.13 38.79,238.78 37.78,239.42 36.06,241.07 34.35,242.72 32.76,243.51 31.17,244.31 30.20,245.04 29.24,245.78 27.82,246.71 26.41,247.64 24.79,248.40 23.18,249.16 21.87,250.12 20.57,251.08 18.90,251.95 17.23,252.82 15.78,253.67 14.33,254.52 12.71,255.25 11.10,255.98 9.68,256.78 8.26,257.57 5.95,258.21 3.64,258.85 1.33,259.62 -0.96,260.38 -3.48,261.00 -5.99,261.61 -8.10,262.39 -10.21,263.18 -12.01,263.85 -13.81,264.52 -15.32,265.36 -16.83,266.19 -18.43,266.92 -20.03,267.64 -21.45,268.47 -22.87,269.30 -25.05,270.21 -27.23,271.13 -29.20,272.30 -31.16,273.47 -33.55,274.58 -35.94,275.70 -37.68,276.95 -39.42,278.19 -41.31,279.85 -43.20,281.51 -45.13,283.62 -47.06,285.72 -49.30,288.61 -51.55,291.49 -53.63,294.97 -55.71,298.44 -57.75,302.22 -59.78,306.00 -61.21,309.29 -62.63,312.58 -63.82,315.43 -65.01,318.28 -65.48,320.53 -65.95,322.78 -66.45,325.49 -66.95,328.20 -67.16,330.45 -67.37,332.70 -67.40,334.52 -67.43,336.33 -67.11,337.83 -66.80,339.32 -66.16,341.01 -65.52,342.71 -64.19,344.80 -62.85,346.89 -61.42,348.97 -59.98,351.06 -57.98,353.34 -55.99,355.61 -53.98,357.74 -51.98,359.88 -50.02,361.61 -48.06,363.35 -46.05,365.27 -44.03,367.20 -41.77,369.14 -39.51,371.08 -37.08,373.37 -34.64,375.67 -31.91,378.06 -29.19,380.44 -26.27,383.21 -23.36,385.98 -20.98,388.30 -18.59,390.62 -16.43,392.76 -14.26,394.90 -12.42,397.32 -10.58,399.73 -8.38,402.75 -6.18,405.77 -3.56,408.73 -0.94,411.68 1.64,415.00 4.24,418.32 6.74,421.13 9.24,423.93 11.23,426.93 13.23,429.94 14.95,433.26 16.67,436.58 18.55,440.57 20.42,444.56 22.37,448.85 24.32,453.13 26.29,457.24 28.26,461.34 29.70,465.16 31.13,468.97 32.04,472.66 32.96,476.34 33.63,479.33 34.29,482.32 34.59,485.09 34.88,487.87 35.01,490.78 35.13,493.70 34.59,496.51 34.06,499.32 33.55,502.44 33.04,505.57 31.93,508.47 30.81,511.37 30.09,513.93 29.36,516.49 28.46,519.07 27.55,521.66 26.59,524.20 25.63,526.73 24.64,528.99 23.64,531.25 22.29,532.95 20.94,534.64 19.54,536.41 18.14,538.18 16.36,540.13 14.57,542.08 12.30,543.83 10.03,545.58 7.58,546.92 5.13,548.26 2.07,549.69 -0.97,551.11 -4.02,552.30 -7.07,553.49 -10.40,554.58 -13.72,555.66 -17.20,556.42 -20.67,557.18 -23.20,558.05 -25.73,558.92 -28.01,559.60 -30.29,560.27 -32.09,560.89 -33.88,561.50 -35.61,561.84 -37.34,562.19 -38.47,562.64 -39.60,563.10 -40.61,563.61 -41.62,564.12 -43.17,564.60 -44.73,565.07 -47.30,565.76 -49.87,566.44 -50.27,566.39 -50.66,566.35 -51.02,566.18 -51.38,566.01 -51.66,565.74 -51.95,565.47 -52.13,565.12 -52.32,564.76 -52.38,564.37 -52.44,563.98 -52.38,563.59 -52.31,563.20 -52.12,562.85 -51.94,562.50 -51.65,562.23 -51.36,561.96 -51.00,561.80 -50.64,561.63 -50.24,561.59 -49.85,561.55 -49.46,561.64 -49.08,561.73 -48.74,561.93 -48.40,562.14 -48.15,562.44 -47.89,562.74 -47.75,563.11 -47.60,563.48 -47.58,563.88 -47.56,564.27 -47.67,564.65 -47.78,565.03 -48.00,565.36 -48.23,565.69 -48.54,565.93 -48.86,566.16 -49.24,566.29 -49.61,566.41 -50.01,566.41 -50.40,566.41 -50.78,566.28 -51.15,566.15 -51.47,565.91 -51.78,565.67 -52.00,565.34 -52.22,565.01 -52.33,564.63 -52.43,564.25 -52.41,563.85 -52.38,563.46 -52.23,563.09 -52.09,562.72 -51.83,562.42 -51.57,562.12 -51.23,561.92 -50.89,561.72 -50.50,561.63 -50.11,561.55 -50.11,561.55 -50.12,561.55 -47.79,561.11 -45.46,560.68 -44.26,560.60 -43.07,560.53 -41.86,560.13 -40.64,559.73 -39.22,559.41 -37.81,559.09 -36.27,558.95 -34.72,558.80 -32.88,558.28 -31.03,557.75 -28.81,557.09 -26.58,556.43 -23.91,555.52 -21.23,554.61 -17.89,553.88 -14.54,553.15 -11.28,552.09 -8.03,551.03 -5.06,549.87 -2.10,548.71 0.87,547.32 3.85,545.92 6.13,544.69 8.40,543.46 10.50,541.86 12.59,540.26 14.30,538.38 16.00,536.50 17.42,534.68 18.83,532.86 20.04,531.52 21.25,530.17 22.21,527.99 23.18,525.80 24.13,523.30 25.07,520.79 25.95,518.28 26.84,515.77 27.60,513.09 28.37,510.42 29.41,507.78 30.45,505.13 30.97,501.97 31.48,498.81 31.99,496.30 32.51,493.79 32.39,490.97 32.27,488.14 32.00,485.51 31.73,482.89 31.07,479.93 30.41,476.97 29.54,473.43 28.67,469.89 27.28,466.19 25.89,462.48 23.91,458.35 21.93,454.22 19.99,449.95 18.05,445.68 16.19,441.73 14.34,437.78 12.69,434.59 11.03,431.39 9.15,428.53 7.27,425.68 4.72,422.81 2.16,419.94 -0.37,416.68 -2.91,413.43 -5.61,410.37 -8.30,407.32 -10.49,404.32 -12.68,401.33 -14.40,399.05 -16.12,396.78 -18.28,394.65 -20.43,392.52 -22.81,390.21 -25.18,387.90 -28.06,385.17 -30.93,382.44 -33.70,380.03 -36.47,377.61 -38.86,375.37 -41.25,373.12 -43.57,371.14 -45.89,369.16 -47.88,367.28 -49.87,365.40 -51.94,363.60 -54.00,361.79 -56.05,359.64 -58.11,357.49 -60.24,355.12 -62.37,352.74 -63.88,350.63 -65.39,348.53 -66.94,346.17 -68.48,343.82 -69.21,341.81 -69.93,339.80 -70.11,338.00 -70.29,336.20 -70.14,334.33 -69.99,332.46 -69.77,330.09 -69.55,327.72 -69.05,324.97 -68.54,322.22 -68.00,319.74 -67.46,317.26 -66.27,314.39 -65.08,311.52 -63.61,308.13 -62.15,304.73 -60.09,300.90 -58.03,297.06 -55.87,293.44 -53.71,289.82 -51.41,286.84 -49.11,283.86 -47.09,281.63 -45.08,279.40 -43.10,277.63 -41.12,275.85 -39.18,274.43 -37.25,273.01 -35.03,271.90 -32.81,270.80 -30.70,269.45 -28.60,268.09 -26.61,267.13 -24.62,266.17 -23.00,265.30 -21.37,264.43 -19.87,263.86 -18.36,263.28 -16.63,262.41 -14.89,261.55 -13.11,260.92 -11.34,260.30 -9.09,259.38 -6.84,258.46 -4.50,257.77 -2.17,257.09 0.15,256.15 2.49,255.20 4.32,254.54 6.16,253.87 7.74,252.95 9.32,252.02 10.70,251.41 12.08,250.80 13.62,249.83 15.16,248.87 16.47,248.18 17.78,247.49 19.42,246.14 21.06,244.79 22.32,244.18 23.58,243.56 24.86,242.61 26.15,241.66 27.49,240.67 28.82,239.67 29.94,239.11 31.05,238.55 32.00,237.80 32.94,237.04 33.95,235.98 34.97,234.92 36.43,234.08 37.90,233.24 38.77,232.21 39.65,231.19 40.64,230.41 41.63,229.64 42.49,228.10 43.36,226.56 43.61,224.95 43.87,223.34 44.33,221.95 44.79,220.56 45.15,219.29 45.51,218.02 45.51,216.01 45.51,214.01 45.49,211.98 45.47,209.96 45.41,207.90 45.35,205.85 45.20,203.75 45.06,201.64 44.85,199.98 44.64,198.31 43.96,196.27 43.27,194.22 42.31,191.99 41.35,189.77 40.44,187.82 39.52,185.87 38.90,184.17 38.27,182.48 37.32,180.87 36.37,179.26 35.52,177.67 34.68,176.09 33.15,174.27 31.63,172.46 29.30,170.11 26.97,167.77 24.88,165.63 22.79,163.50 20.57,161.17 18.35,158.85 16.59,156.85 14.83,154.85 12.64,152.77 10.46,150.69 8.01,148.49 5.56,146.29 2.45,143.77 -0.65,141.26 -3.96,138.67 -7.27,136.09 -10.26,133.44 -13.25,130.79 -15.49,128.68 -17.73,126.56 -19.59,124.96 -21.46,123.36 -23.39,122.12 -25.33,120.87 -26.94,119.46 -28.56,118.05 -30.33,116.74 -32.10,115.43 -34.45,114.21 -36.80,113.00 -39.63,111.48 -42.47,109.96 -45.09,108.36 -47.71,106.77 -49.63,105.13 -51.55,103.48 -53.25,101.70 -54.95,99.92 -56.10,98.27 -57.25,96.62 -57.66,95.19 -58.07,93.76 -58.47,91.94 -58.87,90.12 -59.27,87.95 -59.67,85.78 -59.92,82.78 -60.16,79.77 -60.05,76.91 -59.94,74.04 -59.66,71.38 -59.39,68.71 -58.76,66.00 -58.13,63.29 -57.35,60.40 -56.58,57.51 -56.05,54.62 -55.53,51.73 -54.96,48.99 -54.39,46.24 -53.70,43.87 -53.01,41.51 -52.13,39.59 -51.25,37.67 -50.35,35.69 -49.44,33.72 -48.30,32.28 -47.15,30.84 -46.20,29.14 -45.25,27.43 -43.95,25.62 -42.65,23.81 -41.48,22.28 -40.31,20.76 -38.96,19.19 -37.61,17.63 -35.95,16.07 -34.28,14.52 -32.49,13.03 -30.70,11.53 -29.00,10.00 -27.30,8.46 -25.39,7.03 -23.47,5.61 -21.84,4.59 -20.21,3.57 -18.77,2.60 -17.33,1.62 -15.88,0.75 -14.42,-0.11 -13.23,-0.59 -12.04,-1.07 -10.85,-1.47 -9.65,-1.86 -8.43,-2.17 -7.20,-2.48 -5.04,-2.40 -2.87,-2.33 -1.43,-2.31 0,-2.29 0.27,-2.26 0.55,-2.23 0.80,-2.13 1.06,-2.03 1.29,-1.87 1.52,-1.72 1.70,-1.51 1.89,-1.30 2.02,-1.06 2.15,-0.81 2.21,-0.54 2.28,-0.27 2.28,0.00 2.28,0.27 2.21,0.54 2.15,0.81 2.02,1.06 1.89,1.30 1.70,1.51 1.52,1.72 1.29,1.87 1.06,2.03 0.80,2.13 0.55,2.23 0.27,2.26 -0.00,2.29 -0.00,2.29 L 0,2.29 Z"></path></g><g transform="translate(258 11) rotate(0 88.19166564941406 12.5)"><text x="0" y="0" font-family="Virgil, Segoe UI Emoji" font-size="20px" fill="#1971c2" text-anchor="start" style="white-space: pre;" direction="ltr" dominant-baseline="text-before-edge">Database Service</text></g><g transform="translate(273 206) rotate(0 61.65833282470703 12.5)"><text x="0" y="0" font-family="Virgil, Segoe UI Emoji" font-size="20px" fill="#1971c2" text-anchor="start" style="white-space: pre;" direction="ltr" dominant-baseline="text-before-edge">Item Service</text></g><g transform="translate(190 331) rotate(0 77.09166717529297 12.5)"><text x="0" y="0" font-family="Virgil, Segoe UI Emoji" font-size="20px" fill="#1971c2" text-anchor="start" style="white-space: pre;" direction="ltr" dominant-baseline="text-before-edge">Home Component</text></g><g transform="translate(159 609) rotate(0 193.93333435058594 12.5)"><text x="0" y="0" font-family="Virgil, Segoe UI Emoji" font-size="20px" fill="#1e1e1e" text-anchor="start" style="white-space: pre;" direction="ltr" dominant-baseline="text-before-edge">&lt;li *ngFor="let item of items$ | async"&gt;</text></g><g stroke-linecap="round" transform="translate(180 10) rotate(0 13.5 13.5)"><path d="M17.79 0.86 C20.55 1.48, 23.57 4.1, 25.06 6.56 C26.55 9.02, 27.25 12.73, 26.73 15.62 C26.21 18.5, 24.07 21.96, 21.96 23.85 C19.84 25.73, 17.04 26.88, 14.04 26.92 C11.05 26.97, 6.31 25.94, 3.99 24.11 C1.67 22.27, 0.33 18.69, 0.11 15.92 C-0.1 13.15, 1.3 9.85, 2.69 7.47 C4.08 5.08, 5.86 2.65, 8.44 1.63 C11.02 0.62, 16.21 1.5, 18.18 1.38 C20.16 1.26, 20.15 0.79, 20.29 0.91" stroke="#e03131" stroke-width="1.5" fill="none" stroke-dasharray="8 9"></path></g><g stroke-linecap="round" transform="translate(232 206) rotate(0 13.5 13.5)"><path d="M16.69 -0.35 C19.15 0.23, 22.12 4.09, 23.89 6.7 C25.65 9.3, 27.37 12.54, 27.29 15.26 C27.22 17.98, 25.61 21.21, 23.43 23.04 C21.26 24.87, 17.37 26.19, 14.24 26.23 C11.12 26.27, 6.99 24.88, 4.68 23.29 C2.37 21.71, 0.79 19.54, 0.39 16.71 C0 13.89, 0.86 9.01, 2.31 6.35 C3.77 3.68, 6.02 1.4, 9.1 0.71 C12.18 0.02, 18.43 1.64, 20.81 2.22 C23.18 2.79, 23.57 4.16, 23.34 4.17" stroke="#e03131" stroke-width="1.5" fill="none" stroke-dasharray="8 9"></path></g><g stroke-linecap="round" transform="translate(125 327) rotate(0 13.5 13.5)"><path d="M9.08 1.48 C11.59 0.57, 16.16 0.78, 18.93 1.85 C21.71 2.92, 24.34 5.47, 25.71 7.9 C27.08 10.33, 27.87 13.71, 27.14 16.42 C26.41 19.12, 23.75 22.42, 21.32 24.15 C18.89 25.88, 15.31 27.04, 12.55 26.78 C9.79 26.53, 6.66 24.39, 4.76 22.61 C2.85 20.84, 1.46 18.7, 1.13 16.14 C0.79 13.59, 1.25 9.93, 2.76 7.29 C4.26 4.65, 8.91 1.42, 10.17 0.29 C11.43 -0.84, 10.23 0.45, 10.31 0.52" stroke="#e03131" stroke-width="1.5" fill="none" stroke-dasharray="8 9"></path></g><g transform="translate(10 17) rotate(0 32.09166717529297 12.5)"><text x="0" y="0" font-family="Virgil, Segoe UI Emoji" font-size="20px" fill="#e03131" text-anchor="start" style="white-space: pre;" direction="ltr" dominant-baseline="text-before-edge">Source</text></g><g transform="translate(38 522) rotate(0 17.808332443237305 12.5)"><text x="0" y="0" font-family="Virgil, Segoe UI Emoji" font-size="20px" fill="#e03131" text-anchor="start" style="white-space: pre;" direction="ltr" dominant-baseline="text-before-edge">Sink</text></g><g transform="translate(141 557.7520880487416) rotate(0 13.008333206176758 27.1239559756292)"><text x="0" y="0" font-family="Virgil, Segoe UI Emoji" font-size="43.3983295610067px" fill="#e03131" text-anchor="start" style="white-space: pre;" direction="ltr" dominant-baseline="text-before-edge">X</text></g><g stroke-linecap="round"><g transform="translate(87.00000000000011 32) rotate(0 39.778365160743306 -4.7369579778034705)"><path d="M-1.15 0.28 C12.27 -1.38, 66.93 -7.93, 80.7 -9.75" stroke="#e03131" stroke-width="1.5" fill="none" stroke-dasharray="8 9"></path></g><g transform="translate(87.00000000000011 32) rotate(0 39.778365160743306 -4.7369579778034705)"><path d="M54.46 3.44 C62.94 0.63, 69.93 -4.97, 82.11 -7.93" stroke="#e03131" stroke-width="1.5" fill="none"></path></g><g transform="translate(87.00000000000011 32) rotate(0 39.778365160743306 -4.7369579778034705)"><path d="M51.92 -16.93 C61.24 -13.24, 69.04 -12.36, 82.11 -7.93" stroke="#e03131" stroke-width="1.5" fill="none"></path></g></g><mask></mask><g stroke-linecap="round"><g transform="translate(78 538) rotate(0 31.043972967937577 17.619135315343783)"><path d="M0.93 0.4 C11.18 6.18, 51.34 28.76, 61.15 34.83" stroke="#e03131" stroke-width="1.5" fill="none" stroke-dasharray="8 9"></path></g><g transform="translate(78 538) rotate(0 31.043972967937577 17.619135315343783)"><path d="M32.32 31.36 C37.74 30.35, 49.09 33.01, 62.03 36.34" stroke="#e03131" stroke-width="1.5" fill="none"></path></g><g transform="translate(78 538) rotate(0 31.043972967937577 17.619135315343783)"><path d="M42.69 13.65 C45.32 17.55, 53.85 25.02, 62.03 36.34" stroke="#e03131" stroke-width="1.5" fill="none"></path></g></g><mask></mask></svg>