<svg version="1.1" xmlns="http://www.w3.org/2000/svg" viewBox="0 0 606.0931583261736 643.9999999999998" width="606.0931583261736" height="643.9999999999998">
  <!-- svg-source:excalidraw -->
  
  <defs>
    <style class="style-fonts">
      @font-face {
        font-family: "Virgil";
        src: url("https://excalidraw.com/Virgil.woff2");
      }
      @font-face {
        font-family: "Cascadia";
        src: url("https://excalidraw.com/Cascadia.woff2");
      }
    </style>
    
  </defs>
  <g transform="translate(307.2264896250015 11) rotate(0 88.19166564941406 12.5)"><text x="0" y="0" font-family="Virgil, Segoe UI Emoji" font-size="20px" fill="#1971c2" text-anchor="start" style="white-space: pre;" direction="ltr" dominant-baseline="text-before-edge">Database Service</text></g><g transform="translate(322.2264896250015 205.99999999999974) rotate(0 61.65833282470703 12.5)"><text x="0" y="0" font-family="Virgil, Segoe UI Emoji" font-size="20px" fill="#1971c2" text-anchor="start" style="white-space: pre;" direction="ltr" dominant-baseline="text-before-edge">Item Service</text></g><g transform="translate(239.22648962500148 330.9999999999998) rotate(0 77.09166717529297 12.5)"><text x="0" y="0" font-family="Virgil, Segoe UI Emoji" font-size="20px" fill="#1971c2" text-anchor="start" style="white-space: pre;" direction="ltr" dominant-baseline="text-before-edge">Home Component</text></g><g transform="translate(208.22648962500148 608.9999999999998) rotate(0 193.93333435058605 12.5)"><text x="0" y="0" font-family="Virgil, Segoe UI Emoji" font-size="20px" fill="#1e1e1e" text-anchor="start" style="white-space: pre;" direction="ltr" dominant-baseline="text-before-edge">&lt;li *ngFor="let item of items$ | async"&gt;</text></g><g stroke-linecap="round" transform="translate(229.22648962500148 10) rotate(0 13.5 13.5)"><path d="M12.47 0.29 C15.3 -0.22, 19.48 0.27, 21.65 1.86 C23.82 3.45, 24.75 7.01, 25.49 9.82 C26.23 12.64, 27.25 16.08, 26.09 18.76 C24.94 21.44, 21.27 24.75, 18.55 25.91 C15.83 27.07, 12.36 26.57, 9.79 25.72 C7.22 24.87, 4.89 22.98, 3.15 20.83 C1.4 18.68, -0.93 15.51, -0.68 12.81 C-0.43 10.11, 2.41 6.91, 4.65 4.62 C6.9 2.33, 11.1 -0.33, 12.78 -0.94 C14.45 -1.55, 14.61 0.57, 14.71 0.95" stroke="#e03131" stroke-width="1.5" fill="none" stroke-dasharray="8 9"></path></g><g stroke-linecap="round" transform="translate(282.85757671843635 205.99999999999974) rotate(0 13.5 13.5)"><path d="M13.33 0.67 C16.04 0.19, 19.23 0.23, 21.49 1.96 C23.74 3.68, 26.22 8.18, 26.84 11.01 C27.47 13.85, 26.56 16.56, 25.22 18.98 C23.87 21.4, 21.59 24.22, 18.78 25.53 C15.97 26.84, 11.25 27.78, 8.34 26.83 C5.43 25.89, 2.67 22.26, 1.33 19.86 C-0.01 17.47, -0.29 15.27, 0.32 12.45 C0.92 9.63, 2.75 4.97, 4.97 2.95 C7.2 0.93, 11.73 0.71, 13.68 0.33 C15.63 -0.05, 16.56 0.48, 16.7 0.68" stroke="#e03131" stroke-width="1.5" fill="none" stroke-dasharray="8 9"></path></g><g stroke-linecap="round" transform="translate(268.39127031691237 578.1013347425486) rotate(0 13.5 13.5)"><path d="M18.3 0.36 C20.91 1.17, 23.11 4.66, 24.44 7.4 C25.76 10.14, 26.85 14.1, 26.25 16.81 C25.66 19.53, 23.1 22.04, 20.86 23.71 C18.62 25.38, 15.69 26.75, 12.8 26.86 C9.9 26.97, 5.48 26.3, 3.51 24.39 C1.54 22.48, 1.17 18.27, 0.98 15.38 C0.78 12.5, 1.08 9.64, 2.33 7.1 C3.57 4.56, 5.29 1.04, 8.45 0.15 C11.6 -0.75, 18.94 1.06, 21.27 1.72 C23.61 2.39, 22.64 3.84, 22.46 4.12" stroke="#e03131" stroke-width="1.5" fill="none" stroke-dasharray="8 9"></path></g><g transform="translate(59.22648962500148 17) rotate(0 32.09166717529297 12.5)"><text x="0" y="0" font-family="Virgil, Segoe UI Emoji" font-size="20px" fill="#e03131" text-anchor="start" style="white-space: pre;" direction="ltr" dominant-baseline="text-before-edge">Source</text></g><g transform="translate(10 276.438496636536) rotate(0 53.96666717529297 12.5)"><text x="0" y="0" font-family="Virgil, Segoe UI Emoji" font-size="20px" fill="#e03131" text-anchor="start" style="white-space: pre;" direction="ltr" dominant-baseline="text-before-edge">.subscribe()</text></g><g transform="translate(173.22648962500148 310.75208804874137) rotate(0 13.008333206176758 27.1239559756292)"><text x="0" y="0" font-family="Virgil, Segoe UI Emoji" font-size="43.3983295610067px" fill="#e03131" text-anchor="start" style="white-space: pre;" direction="ltr" dominant-baseline="text-before-edge">X</text></g><g stroke-linecap="round"><g transform="translate(136.22648962500148 32) rotate(0 40.38691990546374 -5.19087557652783)"><path d="M0.25 0.8 C13.71 -1.15, 67.04 -9.42, 80.52 -11.18" stroke="#e03131" stroke-width="1.5" fill="none" stroke-dasharray="8 9"></path></g><g transform="translate(136.22648962500148 32) rotate(0 40.38691990546374 -5.19087557652783)"><path d="M55.42 2.2 C59.59 -0.84, 69.47 -5.42, 78.64 -10.56" stroke="#e03131" stroke-width="1.5" fill="none"></path></g><g transform="translate(136.22648962500148 32) rotate(0 40.38691990546374 -5.19087557652783)"><path d="M52.49 -18.11 C57.58 -15.4, 68.29 -14.22, 78.64 -10.56" stroke="#e03131" stroke-width="1.5" fill="none"></path></g></g><mask></mask><g stroke-linecap="round"><g transform="translate(122.1723312977058 302.5540824018509) rotate(0 23.851019662402223 12.614914306244373)"><path d="M0.8 -0.48 C8.53 3.76, 38.98 21.4, 46.9 25.71" stroke="#e03131" stroke-width="1.5" fill="none" stroke-dasharray="8 9"></path></g><g transform="translate(122.1723312977058 302.5540824018509) rotate(0 23.851019662402223 12.614914306244373)"><path d="M19.25 19.34 C29.59 23.08, 38.33 22.29, 47.52 24.67" stroke="#e03131" stroke-width="1.5" fill="none"></path></g><g transform="translate(122.1723312977058 302.5540824018509) rotate(0 23.851019662402223 12.614914306244373)"><path d="M28.39 3.12 C35.6 12.54, 41.18 17.36, 47.52 24.67" stroke="#e03131" stroke-width="1.5" fill="none"></path></g></g><mask></mask><g transform="translate(248.95773542930624 24.217378311173377) rotate(0 -6.932120147098431 160.66207870333807)" stroke="none"><path fill="#1e1e1e" d="M 0,2.65 Q 0,2.65 -1.17,2.67 -2.34,2.68 -3.85,2.75 -5.37,2.82 -6.74,2.88 -8.12,2.94 -9.41,3.26 -10.70,3.58 -12.05,4.53 -13.39,5.47 -15.27,6.32 -17.15,7.17 -18.69,7.97 -20.24,8.77 -21.43,9.08 -22.62,9.39 -23.70,10.15 -24.77,10.90 -25.49,12.08 -26.21,13.25 -26.90,14.26 -27.59,15.27 -28.40,16.19 -29.20,17.11 -29.73,18.03 -30.26,18.96 -31.48,19.81 -32.70,20.66 -33.49,21.82 -34.28,22.99 -35.39,24.20 -36.51,25.41 -36.92,26.48 -37.34,27.56 -37.99,28.74 -38.65,29.93 -39.17,31.09 -39.70,32.25 -40.47,33.48 -41.24,34.71 -42.11,36.33 -42.99,37.96 -44.00,39.18 -45.01,40.41 -45.66,41.40 -46.30,42.39 -46.78,43.65 -47.26,44.91 -47.51,46.71 -47.77,48.50 -48.10,49.78 -48.42,51.06 -48.52,52.14 -48.62,53.21 -48.66,54.86 -48.70,56.51 -49.10,57.67 -49.50,58.83 -49.48,60.01 -49.46,61.20 -49.84,62.35 -50.23,63.51 -50.94,65.34 -51.66,67.17 -51.80,69.20 -51.95,71.24 -51.90,72.38 -51.85,73.51 -51.87,74.93 -51.90,76.35 -51.89,77.81 -51.88,79.28 -51.87,80.52 -51.86,81.76 -51.86,82.91 -51.86,84.06 -51.87,85.51 -51.89,86.95 -51.90,88.31 -51.91,89.68 -51.89,91.01 -51.88,92.35 -50.89,93.22 -49.91,94.09 -49.03,94.73 -48.16,95.36 -47.43,96.33 -46.71,97.30 -45.52,97.94 -44.32,98.57 -42.88,99.85 -41.44,101.13 -40.62,101.98 -39.80,102.83 -38.74,103.85 -37.68,104.86 -36.61,105.90 -35.54,106.94 -34.27,107.94 -33.01,108.93 -32.22,109.96 -31.43,110.99 -30.63,111.89 -29.84,112.79 -28.78,113.90 -27.72,115.01 -26.49,116.24 -25.25,117.47 -24.36,118.71 -23.48,119.96 -22.10,121.02 -20.71,122.08 -19.87,122.76 -19.03,123.43 -18.12,124.47 -17.21,125.52 -15.92,126.47 -14.62,127.43 -14.01,128.32 -13.40,129.20 -11.99,130.09 -10.58,130.99 -9.20,131.95 -7.81,132.92 -6.55,133.76 -5.30,134.59 -4.31,135.30 -3.32,136.01 -1.62,137.20 0.07,138.39 1.71,139.19 3.34,139.99 4.31,140.51 5.29,141.03 6.62,141.79 7.95,142.55 9.42,143.27 10.88,143.98 12.24,145.03 13.60,146.07 14.69,147.01 15.79,147.94 16.68,148.54 17.57,149.15 18.81,150.35 20.05,151.55 20.95,152.39 21.86,153.23 22.81,154.14 23.77,155.05 25.06,156.31 26.34,157.57 27.11,158.78 27.87,159.98 28.93,160.68 29.99,161.38 30.93,162.40 31.87,163.42 32.80,164.23 33.74,165.03 35.10,166.23 36.47,167.42 37.21,168.44 37.95,169.45 38.77,171.10 39.58,172.75 40.15,174.27 40.72,175.79 41.52,176.67 42.32,177.54 43.41,179.13 44.50,180.72 45.16,181.72 45.81,182.73 46.68,183.95 47.54,185.17 47.99,186.41 48.44,187.66 49.13,189.13 49.81,190.60 50.48,192.26 51.14,193.91 51.63,195.29 52.11,196.66 52.25,197.82 52.38,198.97 53.11,201.04 53.84,203.10 53.89,204.31 53.94,205.51 53.95,207.31 53.97,209.12 53.99,210.21 54.00,211.30 54.00,212.74 54.00,214.18 54.01,215.90 54.02,217.62 53.71,218.86 53.40,220.09 52.99,222.14 52.58,224.19 52.12,226.14 51.66,228.09 50.62,229.74 49.58,231.38 48.68,232.35 47.78,233.32 46.58,234.28 45.37,235.24 44.67,236.65 43.98,238.07 43.11,239.00 42.24,239.93 41.53,240.96 40.82,242.00 40.08,242.77 39.34,243.54 37.96,245.00 36.59,246.46 35.22,247.38 33.86,248.29 32.94,248.91 32.01,249.53 30.69,250.46 29.36,251.38 28.39,251.94 27.42,252.50 26.01,253.15 24.60,253.80 23.20,254.34 21.80,254.88 20.21,255.80 18.63,256.73 17.66,257.32 16.70,257.92 14.82,259.01 12.94,260.10 11.60,260.69 10.25,261.29 8.65,261.75 7.05,262.21 5.74,262.61 4.43,263.01 2.66,263.80 0.88,264.60 -0.47,265.15 -1.84,265.70 -2.92,266.09 -4.01,266.49 -5.17,266.87 -6.33,267.26 -7.53,267.65 -8.73,268.03 -9.95,268.42 -11.17,268.82 -12.64,269.04 -14.10,269.26 -15.18,269.53 -16.25,269.80 -18.24,270.53 -20.23,271.25 -21.42,271.65 -22.62,272.04 -23.83,272.44 -25.05,272.84 -26.23,273.08 -27.40,273.32 -28.80,273.93 -30.20,274.54 -31.37,275.31 -32.54,276.07 -34.59,277.28 -36.65,278.48 -38.20,279.08 -39.75,279.68 -40.87,280.66 -41.99,281.65 -43.34,282.49 -44.69,283.34 -45.81,284.21 -46.92,285.09 -47.90,285.85 -48.88,286.62 -50.17,287.64 -51.46,288.67 -52.23,290.15 -53.00,291.62 -53.65,293.26 -54.31,294.89 -54.30,296.00 -54.29,297.10 -54.66,298.20 -55.03,299.30 -55.45,300.91 -55.87,302.52 -56.35,303.52 -56.82,304.51 -57.29,306.55 -57.76,308.58 -58.10,309.94 -58.44,311.31 -58.89,312.42 -59.35,313.54 -59.65,314.60 -59.95,315.67 -60.33,317.42 -60.71,319.16 -60.77,320.32 -60.84,321.48 -60.96,322.04 -61.07,322.61 -61.37,323.11 -61.66,323.61 -62.10,324.00 -62.54,324.38 -63.08,324.60 -63.62,324.82 -64.19,324.85 -64.77,324.89 -65.34,324.74 -65.90,324.59 -66.38,324.27 -66.86,323.95 -67.22,323.49 -67.58,323.03 -67.77,322.48 -67.96,321.94 -67.97,321.36 -67.97,320.77 -67.79,320.22 -67.61,319.67 -67.26,319.20 -66.92,318.74 -66.44,318.41 -65.96,318.08 -65.41,317.92 -64.85,317.75 -64.27,317.78 -63.69,317.81 -63.15,318.02 -62.60,318.22 -62.16,318.60 -61.71,318.97 -61.41,319.46 -61.10,319.96 -60.97,320.52 -60.84,321.09 -60.90,321.67 -60.95,322.24 -61.19,322.77 -61.43,323.30 -61.83,323.73 -62.22,324.15 -62.73,324.43 -63.24,324.71 -63.81,324.81 -64.39,324.91 -64.96,324.82 -65.53,324.73 -66.05,324.47 -66.57,324.20 -66.97,323.78 -67.37,323.36 -67.62,322.84 -67.87,322.31 -67.94,321.74 -68.01,321.16 -68.01,321.16 -68.01,321.16 -67.55,318.26 -67.09,315.36 -66.78,313.90 -66.47,312.43 -65.96,311.49 -65.45,310.55 -65.33,309.44 -65.21,308.32 -64.50,306.65 -63.78,304.98 -63.60,303.71 -63.42,302.45 -62.69,300.84 -61.96,299.23 -61.57,297.64 -61.19,296.06 -60.84,294.73 -60.49,293.39 -59.98,291.88 -59.47,290.37 -58.99,289.11 -58.51,287.85 -57.33,286.26 -56.15,284.66 -54.99,283.49 -53.82,282.33 -52.12,280.93 -50.41,279.54 -49.08,278.76 -47.74,277.99 -46.08,276.83 -44.42,275.67 -42.30,274.37 -40.17,273.07 -39.01,272.49 -37.84,271.92 -36.02,271.02 -34.19,270.13 -32.41,269.25 -30.63,268.38 -28.73,267.93 -26.84,267.48 -25.64,267.07 -24.44,266.65 -23.28,266.25 -22.11,265.84 -21.01,265.46 -19.92,265.08 -18.78,264.68 -17.65,264.28 -15.31,263.81 -12.98,263.34 -11.79,262.93 -10.59,262.51 -9.42,262.09 -8.25,261.68 -7.14,261.29 -6.03,260.89 -4.18,260.21 -2.32,259.53 -0.93,259.04 0.45,258.55 1.57,258.11 2.69,257.67 4.00,257.21 5.32,256.76 7.53,255.87 9.75,254.99 10.86,254.26 11.98,253.53 13.49,252.68 15.00,251.83 16.16,251.00 17.32,250.17 18.37,249.68 19.42,249.20 20.54,248.68 21.65,248.17 23.60,247.01 25.54,245.84 27.08,244.71 28.62,243.58 29.90,242.90 31.17,242.22 32.09,241.51 33.01,240.79 33.66,239.82 34.31,238.85 35.15,237.91 35.99,236.96 36.99,235.65 37.99,234.33 38.75,233.54 39.51,232.75 40.43,231.50 41.35,230.25 42.14,229.50 42.93,228.74 43.73,227.93 44.53,227.12 45.17,226.01 45.82,224.89 46.16,222.84 46.50,220.79 46.80,219.16 47.09,217.53 47.10,216.41 47.10,215.29 47.11,213.98 47.11,212.67 47.11,211.52 47.12,210.36 47.11,208.96 47.09,207.55 47.11,205.85 47.13,204.16 46.62,202.94 46.11,201.71 45.84,200.09 45.57,198.46 45.07,197.15 44.58,195.83 44.11,194.72 43.64,193.62 42.84,191.99 42.04,190.37 41.74,188.91 41.44,187.44 40.61,186.48 39.77,185.51 39.09,184.46 38.40,183.42 37.44,182.22 36.47,181.02 35.77,180.00 35.08,178.98 34.68,177.73 34.29,176.48 33.80,175.42 33.31,174.37 32.69,173.19 32.07,172.01 30.95,171.00 29.83,170.00 28.53,169.05 27.24,168.10 25.54,166.51 23.83,164.92 22.93,163.91 22.03,162.89 21.33,161.97 20.64,161.05 19.67,160.33 18.70,159.61 17.87,158.47 17.03,157.32 15.55,156.20 14.07,155.07 13.24,154.26 12.40,153.45 10.89,152.29 9.38,151.14 8.48,150.39 7.59,149.65 6.18,148.99 4.77,148.32 3.06,147.36 1.35,146.39 0.01,145.63 -1.32,144.87 -2.68,144.19 -4.04,143.51 -5.42,142.60 -6.80,141.68 -8.44,140.44 -10.08,139.19 -11.42,138.28 -12.76,137.36 -14.39,136.22 -16.02,135.08 -17.41,134.11 -18.81,133.14 -19.67,132.16 -20.52,131.18 -21.79,130.01 -23.06,128.84 -24.75,127.57 -26.44,126.30 -27.84,124.77 -29.25,123.24 -30.19,122.33 -31.12,121.42 -32.11,120.51 -33.11,119.60 -34.08,118.51 -35.05,117.43 -36.05,116.29 -37.06,115.16 -37.91,114.25 -38.76,113.34 -39.71,112.69 -40.66,112.04 -41.51,111.18 -42.36,110.31 -42.91,109.31 -43.46,108.32 -44.56,107.22 -45.65,106.13 -47.00,105.23 -48.35,104.34 -49.37,103.75 -50.40,103.16 -52.00,101.60 -53.60,100.05 -54.43,99.16 -55.25,98.28 -56.67,97.03 -58.09,95.78 -58.56,94.06 -59.02,92.35 -59.01,91.01 -59.00,89.68 -59.01,88.31 -59.01,86.95 -59.03,85.51 -59.04,84.06 -59.05,82.91 -59.05,81.76 -59.03,80.52 -59.02,79.27 -59.01,77.80 -58.99,76.32 -59.00,74.80 -59.00,73.28 -58.93,71.77 -58.85,70.25 -58.52,68.98 -58.19,67.70 -58.09,66.53 -57.99,65.37 -57.59,64.13 -57.19,62.89 -56.86,61.87 -56.53,60.85 -56.51,59.70 -56.48,58.55 -56.08,57.33 -55.67,56.12 -55.68,54.95 -55.69,53.78 -55.61,52.56 -55.52,51.34 -55.22,49.80 -54.91,48.27 -54.83,46.55 -54.74,44.84 -54.24,43.50 -53.74,42.17 -53.07,41.29 -52.39,40.41 -51.71,39.15 -51.02,37.89 -50.24,36.65 -49.46,35.40 -48.65,33.73 -47.84,32.05 -46.79,30.27 -45.74,28.48 -45.28,27.18 -44.83,25.88 -44.14,24.96 -43.45,24.05 -42.62,22.60 -41.78,21.16 -40.56,19.99 -39.34,18.82 -38.66,17.71 -37.98,16.61 -36.77,15.37 -35.55,14.12 -34.65,13.26 -33.76,12.39 -33.19,11.33 -32.62,10.26 -32.03,9.35 -31.45,8.43 -30.39,7.44 -29.33,6.45 -28.02,5.59 -26.71,4.72 -25.23,3.92 -23.76,3.12 -22.13,2.33 -20.50,1.54 -19.06,1.16 -17.62,0.77 -16.15,0.17 -14.69,-0.42 -13.04,-1.08 -11.39,-1.74 -9.75,-2.34 -8.12,-2.94 -6.74,-2.88 -5.37,-2.82 -3.85,-2.75 -2.34,-2.68 -1.17,-2.67 0,-2.65 0.31,-2.61 0.63,-2.57 0.93,-2.46 1.23,-2.35 1.49,-2.17 1.76,-1.98 1.97,-1.74 2.18,-1.50 2.33,-1.22 2.48,-0.94 2.56,-0.63 2.63,-0.32 2.63,0.00 2.63,0.32 2.56,0.63 2.48,0.94 2.33,1.22 2.18,1.50 1.97,1.74 1.76,1.98 1.49,2.17 1.23,2.35 0.93,2.46 0.63,2.57 0.31,2.61 -0.00,2.65 -0.00,2.65 L 0,2.65 Z"></path></g><g stroke-linecap="round"><g transform="translate(312.5701320732676 360.2213195587635) rotate(0 18.47018400100228 104.32052244235379)"><path d="M1.08 1.2 C11.05 18.27, 62.84 68.05, 58.96 102.42 C55.07 136.8, -8.39 189.9, -22.23 207.45" stroke="#e03131" stroke-width="1.5" fill="none" stroke-dasharray="8 9"></path></g><g transform="translate(312.5701320732676 360.2213195587635) rotate(0 18.47018400100228 104.32052244235379)"><path d="M-8.15 179.02 C-12.11 187.38, -15.17 190.65, -21.31 209.26" stroke="#e03131" stroke-width="1.5" fill="none"></path></g><g transform="translate(312.5701320732676 360.2213195587635) rotate(0 18.47018400100228 104.32052244235379)"><path d="M6.67 193.21 C-0.67 198.46, -7.12 198.49, -21.31 209.26" stroke="#e03131" stroke-width="1.5" fill="none"></path></g></g><mask></mask></svg>